<svg height="512pt" viewBox="0 -23 512 512" width="512pt" xmlns="http://www.w3.org/2000/svg"><path d="m19.601562 66.199219h472.796876c8 0 14.601562 6.601562 14.601562 14.601562v307.597657c0 8-6.601562 14.601562-14.601562 14.601562h-472.796876c-8 0-14.601562-6.601562-14.601562-14.601562v-307.597657c0-8 6.601562-14.601562 14.601562-14.601562zm0 0" fill="#e9e9ea"/><path d="m492.398438 66.199219h-472.796876c-8 0-14.601562 6.601562-14.601562 14.601562v40.800781h502v-40.800781c0-8-6.601562-14.601562-14.601562-14.601562zm0 0" fill="#55acd5"/><path d="m492.398438 66.199219h-54.199219l-51.199219 55.402343h120v-40.800781c0-8-6.601562-14.601562-14.601562-14.601562zm0 0" fill="#6dcc6d"/><path d="m291.800781 165h113.398438c5.601562 0 10.199219 4.601562 10.199219 10.199219 0 5.601562-4.597657 10.199219-10.199219 10.199219h-113.398438c-5.601562 0-10.199219-4.597657-10.199219-10.199219 0-5.597657 4.597657-10.199219 10.199219-10.199219zm0 0" fill="#6d6c6b"/><path d="m409.601562 8.601562h-3.601562v-3.601562c0-2.800781-2.199219-5-5-5s-5 2.199219-5 5v3.601562h-3.601562c-2.796876 0-5 2.199219-5 5 0 2.796876 2.203124 5 5 5h3.601562v3.597657c0 2.800781 2.199219 5 5 5s5-2.199219 5-5v-3.597657h3.601562c2.796876 0 5-2.203124 5-5 0-2.800781-2.203124-5-5-5zm0 0" fill="#ea4647"/><path d="m448.199219 38.601562c0-.402343-.199219-.601562-.199219-1-.199219-.203124-.199219-.601562-.398438-.800781-.203124-.199219-.402343-.601562-.601562-.800781-2-1.800781-5-1.800781-7 0-.199219.199219-.398438.398438-.601562.800781-.398438.597657-.597657 1.199219-.796876 1.800781-.203124.597657-.203124 1.398438 0 2 0 .398438.199219.597657.199219 1 .199219.398438.199219.597657.398438.796876.199219.203124.402343.601562.601562.800781 2 2 5 2 7 0 .199219-.199219.398438-.398438.597657-.800781.203124-.199219.402343-.597657.402343-.796876.199219-.203124.199219-.601562.199219-1 .199219-.800781.199219-1.402343.199219-2zm0 0" fill="#ffcd29"/><path d="m62.199219 428.601562c0-.402343-.199219-.601562-.199219-1-.199219-.203124-.199219-.601562-.398438-.800781-.203124-.199219-.402343-.601562-.601562-.800781-2-1.800781-5-1.800781-7 0-.199219.199219-.398438.398438-.601562.800781-.398438.597657-.597657 1.199219-.796876 1.800781-.203124.597657-.203124 1.398438 0 2 0 .398438.199219.597657.199219 1 .199219.398438.199219.597657.398438.796876.199219.203124.402343.601562.601562.800781 2 2 5 2 7 0 .199219-.199219.398438-.398438.597657-.800781.203124-.199219.402343-.597657.402343-.796876.199219-.203124.199219-.601562.199219-1 .199219-.800781.199219-1.402343.199219-2zm0 0" fill="#6dcc6d"/><path d="m117.800781 452.800781c-6.601562-1.199219-11.800781-6.402343-13.199219-13.199219 0-.203124-.203124-.203124-.402343-.203124s-.199219.203124-.199219.203124c-1.199219 6.597657-6.398438 11.796876-13.199219 13.199219-.199219 0-.199219.199219-.199219.398438s.199219.199219.199219.199219c6.597657 1.203124 11.800781 6.402343 13.199219 13.203124 0 .199219.199219.199219.398438.199219.203124 0 .203124-.199219.203124-.199219 1.199219-6.601562 6.398438-11.800781 13.199219-13.203124.199219 0 .199219-.199219.199219-.398438s0-.199219-.199219-.199219zm0 0" fill="#55acd5"/><path d="m46 158.800781h148c2.601562 0 4.800781 2.199219 4.800781 4.800781v161c0 2.597657-2.199219 4.796876-4.800781 4.796876h-148c-2.601562 0-4.800781-2.199219-4.800781-4.796876v-161.203124c0-2.597657 2.199219-4.597657 4.800781-4.597657zm0 0" fill="#ea4647"/><path d="m194 334.199219h-148c-5.398438 0-9.800781-4.398438-9.800781-9.800781v-161c0-5.398438 4.402343-9.796876 9.800781-9.796876h148c5.398438 0 9.800781 4.398438 9.800781 9.796876v161c0 5.402343-4.402343 9.800781-9.800781 9.800781zm-147.800781-10h147.601562v-160.398438h-147.601562zm147.800781-160.398438" fill="#231f20"/><path d="m152.398438 229.199219c-.597657 0-1.398438 0-2 .199219v2 21.203124 2c7 1.199219 13.601562-3.601562 14.800781-10.601562s-3.597657-13.601562-10.597657-14.800781c-1 0-1.601562 0-2.203124 0zm0 0" fill="#f9d0b4"/><path d="m88.800781 252.601562v-21.203124c0-.597657 0-1.398438 0-2-7-1.199219-13.601562 3.601562-14.800781 10.601562s3.601562 13.601562 10.601562 14.800781c1.398438.199219 2.796876.199219 4.199219 0 0-.800781 0-1.402343 0-2.199219zm0 0" fill="#f9d0b4"/><path d="m124.199219 215.398438c-11.199219 14.203124-27.800781 12.203124-33.398438 11-.800781-.199219-1.800781.402343-2 1.203124v.398438 24.601562c0 17 13.800781 30.796876 30.800781 30.796876s30.796876-13.796876 30.796876-30.796876v-27.402343c0-.199219 0-.398438 0-.398438 0-.800781-.796876-1.601562-1.597657-1.601562-12.800781-.398438-19.601562-5.398438-22.199219-8-.601562-.597657-1.601562-.597657-2.402343.199219 0-.199219 0-.199219 0 0zm0 0" fill="#f9d0b4"/><path d="m86.800781 229.199219c.597657 0 1.398438 0 2 .199219v-1.398438c0-1 .800781-1.601562 1.597657-1.601562h.402343c5.597657 1.203124 22.199219 3.203124 33.398438-11 .601562-.796876 1.601562-.796876 2.402343-.199219 0 0 0 0 .199219.199219 2.597657 2.601562 9.398438 7.601562 22.199219 8 .800781 0 1.601562.800781 1.601562 1.601562v.398438 4.203124c4-.601562 8 .597657 10.796876 3.398438v-23.199219c0-9.800781-7.796876-17.601562-17.597657-17.601562-3.199219 0-6.199219.800781-9 2.601562-3.199219-5.402343-8.800781-8.601562-15-8.601562h-9c-17.601562 0-31.800781 14.199219-31.800781 31.800781v14.199219c2-2 4.800781-3 7.800781-3zm0 0" fill="#6d6c6b"/><path d="m119.601562 283.398438c-4.800781 0-9.402343-1.199219-13.800781-3.199219v11.402343l4.800781 14c.199219.796876 1 1.398438 2 1.398438h14.796876c.800781 0 1.601562-.601562 2-1.398438l4.800781-14v-11.800781c-4.597657 2.398438-9.597657 3.597657-14.597657 3.597657zm0 0" fill="#f9d0b4"/><path d="m148.601562 298.800781-14.402343-7-4.800781 14c-.199219.800781-1 1.398438-2 1.398438h-14.796876c-.800781 0-1.601562-.597657-2-1.398438l-4.800781-14-14.402343 7-24 6c-5.199219 1.199219-8.796876 5.800781-9.199219 11.199219l-.800781 13.199219h124.800781l-.800781-13.199219c-.199219-5.398438-4-9.800781-9.199219-11.199219zm0 0" fill="#e9e9ea"/><g fill="#231f20"><path d="m152.398438 260c-1 0-2 0-2.796876-.199219-2.601562-.402343-4.402343-2.601562-4.203124-5.199219 0-.601562 0-1.203124 0-1.800781v-21.199219c0-.601562 0-1.203124 0-1.800781-.199219-2.601562 1.601562-4.800781 4.203124-5.199219 9.796876-1.601562 19 5 20.398438 14.796876 1.601562 9.800781-5 19-14.800781 20.402343-1 0-2 .199219-2.800781.199219zm3-25.199219v14.597657c4-1.597657 5.800781-6.199219 4.203124-10.199219-.800781-2-2.402343-3.597657-4.203124-4.398438zm0 0"/><path d="m86.800781 260c-9.800781 0-17.800781-8-17.800781-17.800781s8-17.800781 17.800781-17.800781c1 0 2 0 2.800781.203124 2.597657.398438 4.398438 2.597657 4.199219 5.199219v1.800781 21 1.796876c.199219 2.601562-1.601562 4.800781-4.199219 5.203124-1 .199219-1.800781.398438-2.800781.398438zm-3-25.199219c-4 1.597657-5.800781 6.199219-4.199219 10.199219.796876 2 2.398438 3.398438 4.199219 4.199219zm0 0"/><path d="m119.601562 288.398438c-19.800781 0-35.800781-16-35.800781-35.796876v-24.800781c0-3.601562 3-6.601562 6.597657-6.601562.402343 0 1 0 1.402343.199219 5.398438 1.203124 19.199219 2.601562 28.398438-9.199219 2.199219-2.800781 6.402343-3.398438 9.402343-1 .199219.199219.398438.402343.597657.402343 1.800781 1.796876 7.601562 6.199219 18.800781 6.597657 3.601562.199219 6.398438 3 6.398438 6.601562v27.800781c0 19.796876-16 35.796876-35.796876 35.796876zm-25.800781-56.597657v20.800781c0 14.199219 11.597657 25.796876 25.800781 25.796876 14.199219 0 25.796876-11.597657 25.796876-25.796876v-24.800781c-7-.402343-13.796876-2.800781-19.597657-7-10.601562 11.398438-24.402343 11.800781-32 11zm30.398438-16.402343"/><path d="m161.199219 237.800781c-1.199219 0-2.597657-.601562-3.398438-1.402343-1.800781-1.796876-4.199219-2.597657-6.601562-2.199219-2.800781.402343-5.199219-1.398438-5.800781-4.199219 0-.199219 0-.601562 0-.800781v-1.398438c-7-.402343-13.796876-2.800781-19.597657-7-11 11.398438-25.199219 11.597657-32.601562 10.800781-1 1.796876-3 2.796876-5.199219 2.597657-2.199219-.398438-4.398438.199219-6.199219 1.601562-2.199219 1.800781-5.402343 1.398438-7-.800781-.800781-.800781-1-2-1-3.199219v-14.199219c0-20.402343 16.398438-36.800781 36.800781-36.800781h9c6.398438 0 12.398438 2.800781 16.597657 7.398438 2.402343-.800781 4.800781-1.199219 7.402343-1.199219 12.398438 0 22.597657 10.199219 22.597657 22.601562v23.199219c0 2.800781-2.199219 5-5 5zm-5.800781-13.402343c.402343 0 .601562.203124 1 .203124v-15c0-7-5.597657-12.601562-12.398438-12.601562-2.199219 0-4.601562.601562-6.601562 1.800781-2.398438 1.398438-5.398438.597657-6.796876-1.800781-2.203124-3.800781-6.402343-6.199219-10.800781-6.199219h-9c-14.800781 0-26.800781 12-26.800781 26.800781v6.597657c.398438 0 .601562-.199219 1-.199219 1.398438-2.398438 4.199219-3.398438 7-3 5.398438 1.199219 19.199219 2.601562 28.398438-9.199219 2.203124-2.800781 6.402343-3.402343 9.402343-1 .199219.199219.398438.398438.597657.398438 1.800781 1.800781 7.601562 6.199219 18.800781 6.601562 3.199219.398438 6 3.199219 6.199219 6.597657zm0 0"/><path d="m127.398438 312h-14.796876c-3 0-5.601562-1.800781-6.601562-4.800781l-4.800781-14c-.199219-.597657-.199219-1-.199219-1.597657v-11.402343c0-2.800781 2.199219-5 5-5 .800781 0 1.601562.199219 2.199219.601562 3.601562 1.800781 7.601562 2.800781 11.402343 2.800781 4.199219 0 8.398438-1 12.199219-3.203124 2.398438-1.398438 5.398438-.398438 6.800781 2 .398438.800781.597657 1.601562.597657 2.402343v11.800781c0 .597657 0 1.199219-.199219 1.597657l-4.800781 14c-1.199219 2.800781-3.800781 4.800781-6.800781 4.800781zm-12.796876-10h10.597657l3.800781-11.199219v-3.601562c-6 1.601562-12.398438 1.800781-18.398438.199219v3.402343zm0 0"/><path d="m182.398438 334.199219h-124.796876c-2.800781 0-5-2.199219-5-5v-.199219l.796876-13.199219c.402343-7.601562 5.601562-13.800781 13-15.601562l23.402343-5.800781 14-6.796876c2.398438-1.203124 5.398438-.203124 6.597657 2.199219 0 .199219.203124.398438.203124.597657l4.199219 12h10.597657l4.203124-12c1-2.597657 3.796876-4 6.398438-3 .199219 0 .398438.203124.601562.203124l14 6.796876 23.398438 5.800781c7.199219 1.800781 12.601562 8.199219 13 15.601562l.800781 13.199219c.199219 2.800781-2 5.199219-4.800781 5.199219-.398438 0-.601562 0-.601562 0zm-119.597657-10h114.199219l-.398438-8c-.203124-3.199219-2.402343-5.800781-5.402343-6.597657l-24-6c-.398438 0-.597657-.203124-1-.402343l-9.398438-4.597657-3 8.597657c-1 2.800781-3.601562 4.800781-6.601562 4.800781h-14.800781c-3 0-5.597657-1.800781-6.597657-4.800781l-3-8.597657-9.402343 4.597657c-.398438.199219-.597657.199219-1 .402343l-24 6c-3 .796876-5.199219 3.398438-5.398438 6.597657zm0 0"/><path d="m492.398438 408h-472.796876c-10.800781 0-19.601562-8.800781-19.601562-19.601562v-307.597657c0-10.800781 8.800781-19.601562 19.601562-19.601562h472.796876c10.800781 0 19.601562 8.800781 19.601562 19.601562v307.597657c0 10.800781-8.800781 19.601562-19.601562 19.601562zm-472.796876-336.800781c-5.402343 0-9.601562 4.402343-9.601562 9.601562v307.597657c0 5.402343 4.398438 9.601562 9.601562 9.601562h472.796876c5.402343 0 9.601562-4.398438 9.601562-9.601562v-307.597657c0-5.402343-4.398438-9.601562-9.601562-9.601562zm0 0"/><path d="m507 126.601562h-502c-2.800781 0-5-2.203124-5-5v-40.800781c0-10.800781 8.800781-19.601562 19.601562-19.601562h472.796876c10.800781 0 19.601562 8.800781 19.601562 19.601562v40.800781c0 2.796876-2.199219 5-5 5zm-497-10h492v-35.800781c0-5.402343-4.398438-9.601562-9.601562-9.601562h-472.796876c-5.402343 0-9.601562 4.402343-9.601562 9.601562zm0 0"/><path d="m155 364.601562h-72c-2.800781 0-5-2.203124-5-5 0-2.800781 2.199219-5 5-5h72c2.800781 0 5 2.199219 5 5 0 2.796876-2.199219 5-5 5zm0 0"/><path d="m457.800781 249.199219h-156c-2.800781 0-5-2.199219-5-5s2.199219-5 5-5h156c2.800781 0 5 2.199219 5 5s-2.402343 5-5 5zm0 0"/><path d="m457.800781 222.398438h-156c-2.800781 0-5-2.199219-5-5 0-2.796876 2.199219-5 5-5h156c2.800781 0 5 2.203124 5 5 0 2.800781-2.402343 5-5 5zm0 0"/><path d="m457.800781 276.199219h-156c-2.800781 0-5-2.199219-5-5s2.199219-5 5-5h156c2.800781 0 5 2.199219 5 5s-2.402343 5-5 5zm0 0"/><path d="m457.800781 303h-156c-2.800781 0-5-2.199219-5-5s2.199219-5 5-5h156c2.800781 0 5 2.199219 5 5s-2.402343 5-5 5zm0 0"/><path d="m457.800781 330h-156c-2.800781 0-5-2.199219-5-5s2.199219-5 5-5h156c2.800781 0 5 2.199219 5 5s-2.402343 5-5 5zm0 0"/><path d="m277.199219 249.199219h-39.597657c-2.800781 0-5-2.199219-5-5s2.199219-5 5-5h39.597657c2.800781 0 5 2.199219 5 5s-2.398438 5-5 5zm0 0"/><path d="m277.199219 222.398438h-39.597657c-2.800781 0-5-2.199219-5-5 0-2.796876 2.199219-5 5-5h39.597657c2.800781 0 5 2.203124 5 5 0 2.800781-2.398438 5-5 5zm0 0"/><path d="m277.199219 276.199219h-39.597657c-2.800781 0-5-2.199219-5-5s2.199219-5 5-5h39.597657c2.800781 0 5 2.199219 5 5s-2.398438 5-5 5zm0 0"/><path d="m277.199219 303h-39.597657c-2.800781 0-5-2.199219-5-5s2.199219-5 5-5h39.597657c2.800781 0 5 2.199219 5 5s-2.398438 5-5 5zm0 0"/><path d="m277.199219 330h-39.597657c-2.800781 0-5-2.199219-5-5s2.199219-5 5-5h39.597657c2.800781 0 5 2.199219 5 5s-2.398438 5-5 5zm0 0"/><path d="m507 126.601562h-120c-2.800781 0-5-2.203124-5-5 0-1.203124.398438-2.402343 1.398438-3.402343l51.203124-55.398438c1-1 2.199219-1.601562 3.597657-1.601562h54.199219c10.800781 0 19.601562 8.800781 19.601562 19.601562v40.800781c0 2.796876-2.199219 5-5 5zm-108.601562-10h103.601562v-35.800781c0-5.402343-4.398438-9.601562-9.601562-9.601562h-52zm0 0"/></g><path d="m405.398438 190.601562h-113.398438c-8.398438 0-15.199219-6.800781-15.199219-15.203124 0-8.398438 6.800781-15.199219 15.199219-15.199219h113.398438c8.402343 0 15.203124 6.800781 15.203124 15.199219 0 8.402343-6.800781 15.203124-15.203124 15.203124zm-113.597657-20.601562c-3 0-5.199219 2.398438-5.199219 5.199219 0 3 2.398438 5.199219 5.199219 5.199219h113.398438c3 0 5.199219-2.398438 5.199219-5.199219 0-3-2.398438-5.199219-5.199219-5.199219zm0 0"/></svg>