<?xml version="1.0" encoding="iso-8859-1"?>
<!-- Generator: Adobe Illustrator 19.0.0, SVG Export Plug-In . SVG Version: 6.00 Build 0)  -->
<svg version="1.1" id="Capa_1" xmlns="http://www.w3.org/2000/svg" xmlns:xlink="http://www.w3.org/1999/xlink" x="0px" y="0px"
	 viewBox="0 0 512 512" style="enable-background:new 0 0 512 512;" xml:space="preserve">
<g>
	<g>
		<path style="fill:none;stroke:#000000;stroke-width:2;stroke-linecap:round;stroke-linejoin:round;" d="M46.137,384h139.243"/>
		<path style="fill:none;stroke:#000000;stroke-width:2;stroke-linecap:round;stroke-linejoin:round;" d="M123.586,419.311h-77.45"
			/>
	</g>
	<g>
		<path style="fill:#9FC9D3;" d="M467.774,128h8.916c9.366-0.003,18.348,3.717,24.971,10.339
			c6.622,6.623,10.342,15.605,10.339,24.971v273.655c0.003,9.366-3.717,18.348-10.339,24.971
			c-6.623,6.622-15.605,10.342-24.971,10.339H35.31c-9.366,0.003-18.348-3.717-24.971-10.339C3.717,455.314-0.003,446.331,0,436.966
			V163.311c-0.003-9.366,3.717-18.348,10.339-24.971c6.623-6.623,15.605-10.342,24.971-10.339H467.774z"/>
		<path style="fill:#F0C419;" d="M512,295.724c0.156,62.786-43.632,117.122-105.016,130.314
			c-61.384,13.192-123.63-18.358-149.282-75.664s-7.717-124.747,43.013-161.741s120.425-33.455,167.147,8.486
			C495.918,222.223,511.968,258.077,512,295.724z"/>
		<path style="fill:#2C3E50;" d="M423.724,269.242c-0.039,17.555-10.42,33.437-26.483,40.519v47.757
			c0,9.751-7.905,17.655-17.655,17.655s-17.655-7.904-17.655-17.655V309.76c-20.225-8.806-30.852-31.185-24.892-52.424
			c5.959-21.239,26.676-34.823,48.53-31.822C407.423,228.516,423.711,247.182,423.724,269.242z"/>
		<path style="fill:#D1D4D1;" d="M467.862,131.002v66.119c-10.474-9.435-22.396-17.124-35.31-22.775v-43.343
			c0.196-14.837-5.485-29.148-15.801-39.812c-9.618-10.297-23.074-16.146-37.164-16.154c-30.064,0.867-53.755,25.901-52.966,55.967
			v43.343c-12.914,5.651-24.837,13.341-35.31,22.775v-66.119c-0.772-49.56,38.718-90.393,88.276-91.277
			c23.592-0.024,46.158,9.647,62.411,26.748C458.736,83.765,468.023,106.935,467.862,131.002z"/>
		<g>
			<path style="fill:#3F5C6C;" d="M185.379,375.173H46.138c-4.875,0-8.828-3.952-8.828-8.828s3.952-8.828,8.828-8.828h139.241
				c4.875,0,8.828,3.952,8.828,8.828S190.255,375.173,185.379,375.173z"/>
			<path style="fill:#3F5C6C;" d="M114.759,410.483H46.138c-4.875,0-8.828-3.952-8.828-8.828s3.952-8.828,8.828-8.828h68.621
				c4.875,0,8.828,3.952,8.828,8.828S119.634,410.483,114.759,410.483z"/>
			<path style="fill:#3F5C6C;" d="M171.146,298.702l-30.662-15.114c-3.944-1.925-6.451-5.925-6.465-10.313v-11.861
				c1.029-1.176,1.998-2.403,2.902-3.677c4.13-5.785,7.344-12.171,9.531-18.934c4.015-1.183,6.786-4.85,6.828-9.035v-12.659
				c-0.015-2.691-1.184-5.245-3.21-7.016v-18.301c0,0,3.81-28.482-35.31-28.482c-39.124,0-35.31,28.482-35.31,28.482v18.301
				c-2.026,1.77-3.196,4.325-3.21,7.016v12.659c0.018,3.24,1.693,6.246,4.439,7.965c2.141,8.63,6.099,16.704,11.611,23.681v11.567
				c-0.012,4.24-2.354,8.129-6.096,10.123l-28.637,15.399c-8.236,4.388-13.392,12.95-13.418,22.282v10.25h141.241v-9.63
				C185.349,311.743,179.829,302.939,171.146,298.702z"/>
		</g>
	</g>
</g>
<g>
</g>
<g>
</g>
<g>
</g>
<g>
</g>
<g>
</g>
<g>
</g>
<g>
</g>
<g>
</g>
<g>
</g>
<g>
</g>
<g>
</g>
<g>
</g>
<g>
</g>
<g>
</g>
<g>
</g>
</svg>
