<?xml version="1.0" encoding="iso-8859-1"?>
<!-- Generator: Adobe Illustrator 19.0.0, SVG Export Plug-In . SVG Version: 6.00 Build 0)  -->
<svg version="1.1" id="Capa_1" xmlns="http://www.w3.org/2000/svg" xmlns:xlink="http://www.w3.org/1999/xlink" x="0px" y="0px"
	 viewBox="0 0 496.941 496.941" style="enable-background:new 0 0 496.941 496.941;" xml:space="preserve">
<g>
	<g>
		<g>
			<path d="M466.432,88.094H306.056V57.224C306.056,25.6,280.456,0,248.832,0s-57.224,25.6-57.224,57.224v30.871H31.232
				c-17.318,0-30.871,13.553-30.871,30.871v253.741c0,17.318,13.553,30.871,30.871,30.871h236.424v68.518
				c0,13.553,11.294,24.847,24.847,24.847h133.271c13.553,0,24.847-11.294,24.847-24.847v-68.518h15.059
				c17.318,0,30.871-13.553,30.871-30.871V118.965C497.303,101.647,483.75,88.094,466.432,88.094z M206.667,57.224
				c0-23.341,18.824-42.165,42.165-42.165s42.165,18.823,42.165,42.165c0,41.412,0,30.118,0,57.977h-84.329
				C206.667,95.624,206.667,110.682,206.667,57.224z M436.314,472.094c0,5.271-4.518,9.788-9.788,9.788H292.503
				c-5.271,0-9.788-4.518-9.788-9.788c0-91.859,0-68.518,0-109.176c91.859,0,112.941,0,153.6,0
				C436.314,403.576,436.314,380.235,436.314,472.094z M313.585,347.859v-38.4c0-23.341,17.318-42.918,39.906-45.929
				c28.612-3.765,52.706,18.823,52.706,45.929v38.4H313.585z M482.244,372.706c0,9.035-7.529,15.812-15.812,15.812h-15.059v-33.129
				c0-4.518-3.012-7.529-7.529-7.529h-23.341v-38.4c0-6.776-0.753-12.8-3.012-18.824h26.353c4.518,0,7.529-3.012,7.529-7.529
				c0-4.518-3.012-7.529-7.529-7.529h-33.882c-12.8-18.824-35.388-30.118-58.729-27.106c-16.565,2.259-31.624,11.294-42.165,27.106
				h-79.059c-4.518,0-7.529,3.012-7.529,7.529c0,4.518,3.012,7.529,7.529,7.529h71.529c-2.259,6.024-3.012,12.047-3.012,18.824v38.4
				h-23.341c-4.518,0-7.529,3.012-7.529,7.529v33.129H31.232c-8.282,0-15.812-7.529-15.812-15.812V118.965
				c0-9.035,7.529-15.812,15.812-15.812h160.376v19.576c0,4.518,3.012,7.529,7.529,7.529h99.388c4.518,0,7.529-3.012,7.529-7.529
				v-19.576h160.376c9.035,0,15.812,6.776,15.812,15.812V372.706z"/>
			<path d="M134.385,235.671h-21.082c24.847-1.506,45.176-22.588,45.176-48.188c0-26.353-21.835-48.188-48.188-48.188
				c-26.353,0-48.188,21.835-48.188,48.188c0,25.6,20.329,46.682,45.177,48.188H86.197c-26.353,0-47.435,21.082-47.435,47.435
				v18.824c0,4.518,3.012,7.529,7.529,7.529h128c4.518,0,7.529-3.012,7.529-7.529v-18.824
				C181.82,256.753,160.738,235.671,134.385,235.671z M77.161,187.482c0-18.071,15.059-33.129,33.129-33.129
				c18.071,0,33.129,15.059,33.129,33.129c0,18.071-15.059,33.129-33.129,33.129C92.22,220.612,77.161,205.553,77.161,187.482z
				 M166.762,294.4H53.82v-11.294c0-18.071,14.306-32.376,32.376-32.376h48.188c18.071,0,32.376,14.306,32.376,32.376V294.4z"/>
			<path d="M174.291,329.788h-128c-4.518,0-7.529,3.012-7.529,7.529s3.012,7.529,7.529,7.529h128c4.518,0,7.529-3.012,7.529-7.529
				S178.056,329.788,174.291,329.788z"/>
			<path d="M351.985,437.459v11.294c0,4.518,3.012,7.529,7.529,7.529s7.529-3.012,7.529-7.529v-11.294
				c9.788-3.012,17.318-12.8,17.318-23.341c0-14.306-11.294-24.847-24.847-24.847c-13.553,0-24.847,11.294-24.847,24.847
				C334.667,425.412,342.197,434.447,351.985,437.459z M359.514,403.576c5.271,0,9.788,4.518,9.788,9.788
				c0,6.024-4.518,9.788-9.788,9.788c-5.271,0-9.788-4.518-9.788-9.788C349.726,408.094,354.244,403.576,359.514,403.576z"/>
			<path d="M443.844,174.682H230.009c-4.518,0-7.529,3.012-7.529,7.529c0,4.518,3.012,7.529,7.529,7.529h213.835
				c4.518,0,7.529-3.012,7.529-7.529C451.373,177.694,447.609,174.682,443.844,174.682z"/>
			<path d="M443.844,225.129H230.009c-4.518,0-7.529,3.012-7.529,7.529s3.012,7.529,7.529,7.529h213.835
				c4.518,0,7.529-3.012,7.529-7.529S447.609,225.129,443.844,225.129z"/>
			<path d="M248.832,30.118c-13.553,0-24.847,11.294-24.847,24.847c0,13.553,11.294,24.847,24.847,24.847
				s24.847-11.294,24.847-24.847C273.679,41.412,262.385,30.118,248.832,30.118z M248.832,64c-5.271,0-9.788-3.765-9.788-9.788
				c0-5.271,4.518-9.788,9.788-9.788s9.788,4.518,9.788,9.788C258.62,59.482,254.103,64,248.832,64z"/>
		</g></g></g><g></g><g></g><g></g><g></g><g></g><g></g><g></g><g></g><g></g><g></g><g></g><g></g><g></g><g></g><g></g></svg>
