<?xml version="1.0" encoding="utf-8"?>
<svg xmlns="http://www.w3.org/2000/svg" style="margin: auto; background: none; display: block; shape-rendering: auto;" width="280" height="250" preserveAspectRatio="xMidYMid">
<style type="text/css">
  text {
    text-anchor: middle; font-size: 80px; opacity: 0;
  }
</style>
<g style="transform-origin:140px 125px;transform:scale(1)">
<g transform="translate(140,125)">
  <g transform="translate(0,0)"><g class="path" style="transform: matrix(1, 0, 0, 1, 0, 0); transform-origin: -34px 0.620478px; animation: 1s linear -0.528s infinite normal forwards running bounce-be227b6a-541b-4dd6-a5d0-9922096b0a23;"><path d="M24.64 12.24L24.64 12.24L24.64 10.72L24.64 10.72Q29.60 10.48 31.36 8.16L31.36 8.16L31.36 8.16Q33.12 5.84 34.64-2.56L34.64-2.56L42.32-46.80L42.32-46.80Q25.92-45.44 17-39.72L17-39.72L17-39.72Q8.08-34 8.08-24.80L8.08-24.80L8.08-24.80Q8.08-20.64 10.96-17.76L10.96-17.76L10.96-17.76Q12.96-15.84 16.24-14.84L16.24-14.84L16.24-14.84Q19.52-13.84 21.64-13.72L21.64-13.72L21.64-13.72Q23.76-13.60 23.92-13.76L23.92-13.76L23.92-12.08L23.92-12.08Q14.48-12.08 9.92-16.56L9.92-16.56L9.92-16.56Q6.56-19.68 6.56-24.80L6.56-24.80L6.56-24.80Q6.56-36.24 18.52-42.48L18.52-42.48L18.52-42.48Q30.48-48.72 52.32-48.72L52.32-48.72L52.32-48.72Q65.92-48.72 71.64-45.04L71.64-45.04L71.64-45.04Q77.36-41.36 77.36-35L77.36-35L77.36-35Q77.36-28.64 73-24.08L73-24.08L73-24.08Q68.64-19.52 61.52-17.04L61.52-17.04L61.52-17.04Q71.92 4.56 74.88 8.92L74.88 8.92L74.88 8.92Q77.84 13.28 82 13.28L82 13.28L82 13.28Q84.48 13.28 86.44 11.72L86.44 11.72L86.44 11.72Q88.40 10.16 89.20 7.52L89.20 7.52L91.20 7.52L91.20 7.52Q88.64 15.84 78.64 15.84L78.64 15.84L78.64 15.84Q72.32 15.84 68.20 12.84L68.20 12.84L68.20 12.84Q64.08 9.84 61.28 3.76L61.28 3.76L52.64-14.96L52.64-14.96Q49.44-14.64 47.92-14.64L47.92-14.64L47.92-14.64Q47.68-13.44 47.20-10.56L47.20-10.56L47.20-10.56Q46.72-7.68 46.40-6.24L46.40-6.24L46.40-6.24Q44.80 2.40 38.36 7.32L38.36 7.32L38.36 7.32Q31.92 12.24 24.64 12.24zM75.28-34.72L75.28-34.72L75.28-34.72Q75.28-46.96 53.04-47.20L53.04-47.20L48.24-16.40L48.24-16.40Q59.60-16.72 67.44-22.12L67.44-22.12L67.44-22.12Q75.28-27.52 75.28-34.72" fill="#5851cc" stroke="none" stroke-width="none" transform="translate(-82.8800048828125,17.06048083496094)" style="fill: rgb(88, 81, 204);"></path></g><g class="path" style="transform: matrix(1, 0, 0, 1, 0, 0); transform-origin: 15.96px 1.86048px; animation: 1s linear -0.396s infinite normal forwards running bounce-be227b6a-541b-4dd6-a5d0-9922096b0a23;"><path d="M86.16-29.52L86.16-29.52L86.16-29.52Q84.24-29.52 82.16-27.28L82.16-27.28L80.96-28.24L80.96-28.24Q81.52-29.36 83.44-30.24L83.44-30.24L83.44-30.24Q85.36-31.12 87.68-31.12L87.68-31.12L87.68-31.12Q94.96-31.12 94.96-24.56L94.96-24.56L94.96-24.56Q94.96-21.76 93.52-14.56L93.52-14.56L93.52-14.56Q92.08-7.36 92.08-5.12L92.08-5.12L92.08-5.12Q92.08-1.68 95.36-1.68L95.36-1.68L95.36-1.68Q97.68-1.68 99.88-4.40L99.88-4.40L99.88-4.40Q102.08-7.12 103.68-11.92L103.68-11.92L107.04-30.40L107.04-30.40Q112.96-30.40 115.68-30.88L115.68-30.88L116.72-31.12L111.36-0.88L111.36-0.88Q113.76-1.12 115.36-3.12L115.36-3.12L116.56-2.16L116.56-2.16Q114.16 0.72 110.56 0.72L110.56 0.72L110.56 0.72Q106.96 0.72 104.96-1.04L104.96-1.04L104.96-1.04Q102.96-2.80 102.88-6L102.88-6L102.88-6Q99.52 0.72 92.96 0.72L92.96 0.72L92.96 0.72Q88.24 0.72 85.60-1.96L85.60-1.96L85.60-1.96Q82.96-4.64 82.96-9.36L82.96-9.36L82.96-9.36Q82.96-11.84 84.48-18.92L84.48-18.92L84.48-18.92Q86-26 86.16-29.52" fill="#5851cc" stroke="none" stroke-width="none" transform="translate(-82.8800048828125,17.06048083496094)" style="fill: rgb(88, 81, 204);"></path></g><g class="path" style="transform: matrix(1, 0, 0, 1, 0, 0); transform-origin: 52.96px 1.86048px; animation: 1s linear -0.264s infinite normal forwards running bounce-be227b6a-541b-4dd6-a5d0-9922096b0a23;"><path d="M127.92-29.60L127.92-29.60L127.92-29.60Q125.92-29.60 124.56-28.24L124.56-28.24L124.56-28.24Q123.20-26.88 123.20-25.04L123.20-25.04L123.20-25.04Q123.20-23.20 124.24-21.28L124.24-21.28L122.80-20.72L122.80-20.72Q121.52-22.32 121.52-24.96L121.52-24.96L121.52-24.96Q121.52-27.60 123.32-29.36L123.32-29.36L123.32-29.36Q125.12-31.12 127.68-31.12L127.68-31.12L127.68-31.12Q130.24-31.12 134.52-30.36L134.52-30.36L134.52-30.36Q138.80-29.60 144.12-29.64L144.12-29.64L144.12-29.64Q149.44-29.68 152-30.32L152-30.32L130.80-2.08L130.80-2.08Q135.04-0.80 140.08-0.72L140.08-0.72L140.08-0.72Q143.28-0.72 145.64-2.52L145.64-2.52L145.64-2.52Q148-4.32 148.72-6.08L148.72-6.08L149.44-7.84L150.80-7.36L150.80-7.36Q150.08-4.48 147.52-1.88L147.52-1.88L147.52-1.88Q144.96 0.72 139.88 0.72L139.88 0.72L139.88 0.72Q134.80 0.72 130.64-0.40L130.64-0.40L130.64-0.40Q126.48-1.52 124.56-1.52L124.56-1.52L124.56-1.52Q122.64-1.52 121.12 0L121.12 0L119.68 0L140.64-28.32L140.64-28.32Q136.48-28.48 133.20-29.04L133.20-29.04L133.20-29.04Q129.92-29.60 127.92-29.60" fill="#5851cc" stroke="none" stroke-width="none" transform="translate(-82.8800048828125,17.06048083496094)" style="fill: rgb(88, 81, 204);"></path></g><g class="path" style="transform: matrix(1, 0, 0, 1, 0, 0); transform-origin: 79.88px 1.86048px; animation: 1s linear -0.132s infinite normal forwards running bounce-be227b6a-541b-4dd6-a5d0-9922096b0a23;"><path d="M169.44-2.16L169.44-2.16Q167.04 0.72 163.44 0.72L163.44 0.72L163.44 0.72Q159.84 0.72 157.80-1.12L157.80-1.12L157.80-1.12Q155.76-2.96 155.76-5.92L155.76-5.92L155.76-5.92Q155.76-6.96 157.04-14.64L157.04-14.64L159.68-28.96L156.32-28.96L156.48-30.40L159.92-30.40L159.92-30.40Q165.84-30.40 168.64-30.88L168.64-30.88L169.76-31.12L164.24-0.88L164.24-0.88Q166.64-1.12 168.24-3.12L168.24-3.12L169.44-2.16" fill="#5851cc" stroke="none" stroke-width="none" transform="translate(-82.8800048828125,17.06048083496094)" style="fill: rgb(88, 81, 204);"></path></g><g class="path" style="transform: matrix(1, 0, 0, 1, 0, 0); transform-origin: 83.64px -25.8595px; animation: 1s linear 0s infinite normal forwards running bounce-be227b6a-541b-4dd6-a5d0-9922096b0a23;"><path d="M162.40-38.80L162.40-38.80L162.40-38.80Q160.72-40.48 160.72-42.88L160.72-42.88L160.72-42.88Q160.72-45.28 162.40-47L162.40-47L162.40-47Q164.08-48.72 166.48-48.72L166.48-48.72L166.48-48.72Q168.88-48.72 170.60-47L170.60-47L170.60-47Q172.32-45.28 172.32-42.88L172.32-42.88L172.32-42.88Q172.32-40.48 170.60-38.80L170.60-38.80L170.60-38.80Q168.88-37.12 166.48-37.12L166.48-37.12L166.48-37.12Q164.08-37.12 162.40-38.80" fill="#5851cc" stroke="none" stroke-width="none" transform="translate(-82.8800048828125,17.06048083496094)" style="fill: rgb(88, 81, 204);"></path></g></g>
</g>
</g>
<style id="bounce-be227b6a-541b-4dd6-a5d0-9922096b0a23" data-anikit="">@keyframes bounce-be227b6a-541b-4dd6-a5d0-9922096b0a23
{
  0% {
    animation-timing-function: cubic-bezier(0.1361,0.2514,0.2175,0.8786);
    transform: translate(0,0px) scaleY(1);
  }
  37% {
    animation-timing-function: cubic-bezier(0.7674,0.1844,0.8382,0.7157);
    transform: translate(0,-39.96px) scaleY(1);
  }
  72% {
    animation-timing-function: cubic-bezier(0.1118,0.2149,0.2172,0.941);
    transform: translate(0,0px) scaleY(1);
  }
  87% {
    animation-timing-function: cubic-bezier(0.7494,0.2259,0.8209,0.6963);
    transform: translate(0,19.900000000000002px) scaleY(0.602);
  }
  100% {
    transform: translate(0,0px) scaleY(1);
  }
}</style></svg>